<svg viewBox="0 0 500 500" xmlns="http://www.w3.org/2000/svg" xmlns:xlink="http://www.w3.org/1999/xlink" overflow="hidden"><g id="freepik--character-1--inject-81"><g id="freepik--character--inject-81"><g id="freepik--bottom--inject-81"><path d="M173.84 284.53C172.287 284.634 170.872 285.454 170.01 286.75 169.38 288.883 169.063 291.096 169.07 293.32 169.132 297.153 168.065 300.92 166 304.15 163.82 307.5 161.33 314.84 163.35 319.42 165.37 324 167.97 327.69 172.58 328.42 177.19 329.15 181.32 324.12 182.58 320.89Z" fill="#37474F"/><path d="M164.94 316.66C164.696 315.829 164.581 314.966 164.6 314.1 164.584 311.771 165.1 309.469 166.11 307.37 167.458 305.289 168.629 303.097 169.61 300.82 170.517 298.384 171.115 295.845 171.39 293.26 171.6 291.2 171.5 288.91 172.24 286.94 174.46 280.94 181.01 281.57 184.73 280.94L198.05 271.31 203.05 289.19C203.05 289.19 195.82 291.84 193.72 292.95 190.94 294.42 188.36 297.95 186.72 300.48 184.59 303.68 181.95 307.02 181.93 311.03 182.019 313.203 182.334 315.362 182.87 317.47 183.027 318.067 183.091 318.684 183.06 319.3 182.88 321 181.37 322.2 179.99 323.2 177.75 324.82 175.06 326.52 172.41 325.72 170.942 325.127 169.667 324.136 168.73 322.86 167.046 321.082 165.755 318.97 164.94 316.66Z" fill="#F28F8F"/><path d="M182.56 312.34C182.582 309.868 183.203 307.439 184.37 305.26 185.68 302.98 188.59 298.35 189.89 297.1 191.19 295.85 192.36 295.47 191.94 295.05 191.52 294.63 183.99 292.79 181.46 292.75 178.93 292.71 178.62 294.25 177.27 295.38 177.27 295.38 179.35 292.51 179.35 289.75 179.35 287.7 180.2 282.21 183.65 281.3L184.76 280.93C184.76 280.93 184.85 280.1 183.41 280.43 181.97 280.76 177.09 281.8 175.41 282.81 173.73 283.82 171.67 285.04 171.16 288.74 170.65 292.44 171.16 293.62 170.16 297.27 169.314 300.564 167.965 303.708 166.16 306.59 164.319 309.878 163.723 313.719 164.48 317.41Z" fill="#455A64"/><path d="M258.83 213.12C258.545 227.291 256.639 241.382 253.15 255.12 248.7 271.87 246.5 274.35 243.62 275.73 230.83 281.85 196.62 291.73 196.62 291.73 196.62 291.73 189.3 284.38 190.98 276.15 201.09 268.89 217.59 256.4 225.54 256.9L210.46 208.9Z" fill="#37474F"/><path d="M173.36 326.75C176.15 326.75 180.25 324.7 182.56 320.85 184.45 317.71 182.62 313.61 182.56 312.34 182.31 311.85 179.02 310.49 173.28 311.39 167.54 312.29 165.63 314.62 164.52 317.39 164.8 320.25 169.27 326.75 173.36 326.75Z" fill="#F0F0F0"/><path d="M267.93 344.24C266.67 344.33 266.93 342.62 266.08 338.79 265.23 334.96 262.57 318.4 262.57 318.4L243.09 325.73C243.09 325.73 248.32 339.51 249.96 343.48 251.79 347.89 254.34 353.95 254.76 357.38 255.18 360.81 255.37 370.38 259.68 372.12 263.99 373.86 267.98 371.88 270.83 370.01 273.68 368.14 276.97 361.65 280.11 358.36 283.25 355.07 285.92 353.24 288.35 349.84 290.78 346.44 290.59 338.01 287.35 336.26 284.11 334.51 279.35 336.52 276.63 338.17 273.91 339.82 270.27 344.08 267.93 344.24Z" fill="#F28F8F"/><path d="M210.45 208.8C204.65 222.42 202.76 235.9 208.79 247.16 214.82 258.42 219.69 265.16 233.06 290.68 233.06 296.41 233.21 302.12 237.4 312.88 242.62 326.26 248.32 340.64 248.32 340.64 248.32 340.64 253.6 331.99 265.32 333.45 264.71 326.86 260.77 295.45 258.85 286.21 256.45 274.67 247.15 235.21 247.15 235.21 254.147 229.993 258.204 221.726 258.05 213Z" fill="#455A64"/><path d="M256.39 369.45C255.271 366.115 254.615 362.643 254.44 359.13 254.01 354.13 253.09 352.57 253.09 352.57 253.09 352.57 253.6 349.24 258.74 345.17 263.88 341.1 267.09 343 267.09 343 267.09 343 268.27 345 271.52 341.3L277.52 349Z" fill="#455A64"/><path d="M287.77 335.84C285.85 334.02 282.77 334.05 278.77 336.07 276.061 337.348 273.616 339.122 271.56 341.3 271.56 341.3 269.42 345.19 272.67 347.84 275.92 350.49 287.77 335.84 287.77 335.84Z" fill="#F0F0F0"/><path d="M290.7 339.37C290.565 338.285 290.008 337.297 289.15 336.62 288.88 336.45 287.95 335.96 287.77 335.84 285.38 334.29 281.1 337.63 277.49 340.9 273.29 344.71 269.4 352.37 266 357.55 262.6 362.73 258.37 364.73 257 367.01 256.048 368.464 256.213 370.38 257.4 371.65 257.62 371.89 258.4 372.65 258.58 372.78 259.69 373.85 261.67 374.29 264.01 373.84 268.72 372.93 272.11 371.44 276.01 365.89 279.91 360.34 282.01 357.46 286.52 353.89 291.03 350.32 291.67 343.84 290.7 339.37Z" fill="#37474F"/><path d="M290.7 339.37C289.34 333.11 283.54 337.45 278.87 341.69 274.67 345.5 270.78 353.15 267.38 358.34 263.98 363.53 259.65 365.45 258.38 367.8 256.03 372.06 259.29 374.74 264.01 373.8 268.73 372.86 272.11 371.4 276.01 365.85 279.91 360.3 282.01 357.42 286.52 353.85 291.03 350.28 291.67 343.84 290.7 339.37Z" fill="#263238"/><path d="M269.08 343.34 269.08 343.34C267.66 343.97 267.08 343 267.08 343 262.61 347.53 262.08 350.44 262.08 350.44 262.08 350.44 266.5 345.09 269.08 343.34Z" fill="#37474F"/><path d="M241.77 236.79C244.819 243.951 247.407 251.299 249.52 258.79 251.768 266.271 253.637 273.861 255.12 281.53 256.36 289.22 257.58 296.92 258.7 304.63 259.82 312.34 260.88 320.05 261.82 327.79 260.253 320.15 258.787 312.5 257.42 304.84 256.04 297.18 254.76 289.51 253.49 281.84 252.87 278.02 251.96 274.25 251.08 270.46 250.2 266.67 249.24 262.91 248.28 259.15 247.32 255.39 246.28 251.63 245.23 247.89 244.18 244.15 243 240.47 241.77 236.79Z" fill="#37474F"/></g><g id="freepik--top--inject-81"><g id="freepik--top--inject-81"><g id="freepik--arm--inject-81"><path d="M255.26 154.22C261.83 155.22 262.96 156.91 272.68 165.31 276.938 169.117 281.638 172.397 286.68 175.08 286.68 175.08 294.91 185.08 295.25 187.03 295.59 188.98 296.25 193.37 292.38 195.82 289.91 197.38 287.04 195.95 285.51 196.1 282.32 196.41 280.36 193.82 279.04 193.03 270.04 187.68 261.04 182.8 261.04 182.8Z" fill="#455A64"/><path d="M316.33 148.65C314.98 147.85 314.74 149.09 314.28 149.26 314.28 149.26 315.66 147.67 313.34 146.26 311.91 145.41 311.22 147.41 311.19 147.14 311.19 147.02 312.91 142.95 314.32 139.49 315.67 136.21 314.51 135.27 313.97 135.01 313.43 134.75 312.89 135.01 311.65 137.36 310.41 139.71 306.75 146.9 305.92 148.36 305.09 149.82 304.5 150.54 303.97 148.61 303.44 146.68 302.97 145.08 301.97 143.97 300.21 142.12 298.83 142.97 299.11 144.35 299.5 146.35 299.47 148.69 299.75 151.96 299.9 153.66 299.94 155.26 300.14 156.43 300.74 160.52 298.34 162.43 295.5 165.62 293.17 168.25 290.77 170.4 285.42 175.69 280.35 180.69 280.55 192.48 285.56 194.56 291.31 196.94 293.56 193.91 297.77 187.56 301.3 182.17 306.18 172.34 307.5 170.06 308.82 167.78 309.3 166.39 311.14 165.27 313.302 163.935 315.037 162.009 316.14 159.72 316.8 158.57 318.05 156.46 318.87 154.72 319.69 152.98 319.77 151.78 318.79 151.05 317.46 150.05 317.07 151.53 316.93 151.37 316.79 151.21 318.25 149.78 316.33 148.65Z" fill="#FFA8A7"/><path d="M306 151.47C307.86 153.3 309.18 158.24 308.37 161.47 310.72 158.09 309.4 153.06 306 151.47Z" fill="#F28F8F"/><path d="M310.76 148.25C309.67 150.25 308.62 152.47 308.9 153.36 309.18 154.25 309.83 154.72 310.56 154.53 310.996 154.415 311.398 154.195 311.73 153.89 311.462 154.367 311.363 154.92 311.45 155.46 311.81 156.149 312.596 156.5 313.35 156.31 313.807 156.131 314.193 155.808 314.45 155.39 314.45 155.39 314 156.58 314.45 157.24 315.058 157.835 316.033 157.825 316.628 157.218 316.679 157.165 316.727 157.109 316.77 157.05 316.22 157.99 315.45 158.52 314.48 158.05 313.51 157.58 313.74 156.81 313.74 156.81 313.166 157.197 312.414 157.197 311.84 156.81 311.145 156.482 310.74 155.742 310.84 154.98 310.13 155.516 309.121 155.375 308.585 154.665 308.464 154.505 308.374 154.323 308.32 154.13 307.9 152.89 308.32 152 309.13 150.56 309.558 149.715 310.107 148.936 310.76 148.25Z" fill="#F28F8F"/></g><g id="freepik--Chest--inject-81"><path d="M262.19 177.12C262.74 160.3 257.39 155.12 254.53 153.75L242.74 150.64C239.07 150.82 223.27 154.53 218.93 155.33 216.14 155.85 214.13 161.33 212.2 170.04 210.64 177.14 209.64 183.14 208.36 193.09 207.28 201.42 206.03 210.92 206.79 222.86 225.32 229.76 243.27 233.62 257.94 223.71 257.76 221.33 260.38 201.71 260.85 195.97 261.32 190.23 262 181.68 262.19 177.12Z" fill="#FAFAFA"/><path d="M213.87 155.62 231.09 151.62C231.09 151.62 232.09 155.62 234.49 163.38 236.89 171.14 236.49 174.38 234.85 187.06 233.21 199.74 228.72 226.86 229.43 232.2 223.77 232.12 205.56 227.97 202.54 225.41 202.54 225.41 205.4 204.75 206.91 191.81 208.42 178.87 207 158.28 213.87 155.62Z" fill="#FFC100"/><path d="M213.87 155.62 231.09 151.62C231.09 151.62 232.09 155.62 234.49 163.38 236.89 171.14 236.49 174.38 234.85 187.06 233.21 199.74 228.72 226.86 229.43 232.2 223.77 232.12 205.56 227.97 202.54 225.41 202.54 225.41 205.4 204.75 206.91 191.81 208.42 178.87 207 158.28 213.87 155.62Z" fill="#FFFFFF" opacity="0.65"/><path d="M247.91 153.13C252.7 155.9 255.56 162.13 255.56 170.13 255.56 178.13 254.31 194.28 254.24 200.32 254.17 206.36 255.5 227.73 255.5 227.73 258.03 226.61 260.41 224.73 261.07 221.18 260.37 217.39 261.86 200.61 262.12 195.61 262.38 190.61 262.8 179.04 262.98 172.92 263.16 166.8 262.16 159.01 257.3 154.55 254.336 153.379 251.283 152.446 248.17 151.76Z" fill="#FFC100"/><path d="M247.91 153.13C252.7 155.9 255.56 162.13 255.56 170.13 255.56 178.13 254.31 194.28 254.24 200.32 254.17 206.36 255.5 227.73 255.5 227.73 258.03 226.61 260.41 224.73 261.07 221.18 260.37 217.39 261.86 200.61 262.12 195.61 262.38 190.61 262.8 179.04 262.98 172.92 263.16 166.8 262.16 159.01 257.3 154.55 254.336 153.379 251.283 152.446 248.17 151.76Z" fill="#FFFFFF" opacity="0.65"/><path d="M255.42 174.75C255.61 168.88 253.91 158.07 248 155.02 247.852 154.401 247.822 153.76 247.91 153.13L248.42 150.13C250.186 151.072 251.838 152.217 253.34 153.54 255.77 155.7 259.56 161.97 260.07 166.64 257.72 164 256.08 167.52 255.42 174.75Z" fill="#FFC100"/><path d="M255.42 174.75C255.61 168.88 253.91 158.07 248 155.02 247.852 154.401 247.822 153.76 247.91 153.13L248.42 150.13C250.186 151.072 251.838 152.217 253.34 153.54 255.77 155.7 259.56 161.97 260.07 166.64 257.72 164 256.08 167.52 255.42 174.75Z" fill="#FFFFFF" opacity="0.45"/><g id="freepik--Head--inject-81"><path d="M232.81 144.9C232.35 140.79 228.55 136.31 226.93 132.65 225.31 128.99 224.48 126.41 224.86 123.2 225.09 121.31 226.44 118.79 227.86 118.33 226.799 113.548 229.816 108.81 234.598 107.749 234.732 107.72 234.866 107.693 235 107.67 236.351 107.475 237.688 107.188 239 106.81 240.57 106.26 241 105.04 242.29 104.06 244.52 102.38 248.11 102.55 249.29 105.36 250.82 103.61 252.74 103.77 254.92 104.47 256.841 105.02 258.005 106.967 257.58 108.92 260.65 107.43 263.25 109.69 263.42 111.45 263.55 112.75 263.21 113.82 263.99 115.03 264.77 116.24 266.66 116.46 267.27 115.44 267.47 117.29 266.67 118.65 264.69 118.44 265.328 119.518 265.442 120.828 265 122 264.428 123.475 263.001 124.439 261.42 124.42 261.296 125.397 260.954 126.333 260.42 127.16 259.771 128.013 258.927 128.698 257.96 129.16 254.87 130.42 251.52 130.69 248.24 131.16L244.36 131.73C244.13 131.73 242.97 131.73 242.82 131.96Z" fill="#263238"/><path d="M228.18 139.35C229.573 140.464 231.535 140.521 232.99 139.49L232.19 147.67 231.19 154.29C231.19 154.29 237.89 164.08 248.83 165.23 249.75 162.88 249.62 158.47 248.19 156.1L248.89 149.8C250.504 149.921 252.123 149.944 253.74 149.87 257.118 149.492 259.943 147.129 260.91 143.87 262.214 139.37 262.642 134.661 262.17 130 262.01 128.886 262.01 127.754 262.17 126.64 262.546 124.212 262.351 121.73 261.6 119.39 258.25 116.39 248.35 115.19 240.5 119.39 241.9 123.39 240.65 127.21 237.28 128.74 237.36 129.96 237.28 133.05 235.28 132.87 233.84 132.75 233.85 130.93 232.47 129.26 231.09 127.59 227.65 126.95 226.18 129.26 224.22 132.649 225.076 136.965 228.18 139.35Z" fill="#FFA8A7"/><path d="M248.91 149.8C243.91 148.91 240.06 148.13 237.64 144.31 236.523 142.352 235.618 140.28 234.94 138.13 235.103 140.756 235.687 143.339 236.67 145.78 237.81 148.2 240.82 150.33 248.72 151.47Z" fill="#F28F8F"/><path d="M247.47 129.36C247.379 130.145 246.67 130.707 245.885 130.616 245.101 130.526 244.538 129.816 244.629 129.031 244.717 128.268 245.394 127.711 246.16 127.77 246.957 127.843 247.545 128.549 247.471 129.347 247.471 129.351 247.47 129.356 247.47 129.36Z" fill="#263238"/><path d="M246.65 125.05 243.45 126.43C243.078 125.521 243.494 124.482 244.39 124.08 245.261 123.715 246.263 124.125 246.628 124.996 246.636 125.014 246.643 125.032 246.65 125.05Z" fill="#263238"/><path d="M260 126.78 256.67 125.65C256.922 124.757 257.85 124.237 258.743 124.489 258.776 124.499 258.808 124.509 258.84 124.52 259.768 124.843 260.279 125.838 260 126.78Z" fill="#263238"/><path d="M259.2 129.93C259.163 130.724 258.489 131.338 257.694 131.301 257.686 131.301 257.678 131.301 257.67 131.3 256.873 131.221 256.286 130.518 256.35 129.72 256.377 128.931 257.038 128.312 257.827 128.339 258.617 128.366 259.235 129.027 259.208 129.816 259.207 129.854 259.204 129.892 259.2 129.93Z" fill="#263238"/><path d="M257.78 135.27 252.69 137.18 251.69 127.38C253.61 126.83 255.72 131.43 257.78 135.27Z" fill="#F28F8F"/><path d="M247 139.15 252.89 140.77C252.521 142.385 250.913 143.396 249.297 143.027 249.261 143.018 249.226 143.01 249.19 143 247.546 142.511 246.58 140.813 247 139.15Z" fill="#B16668"/><path d="M247.71 140.16C247.464 140.13 247.216 140.13 246.97 140.16 247.038 141.499 247.944 142.65 249.23 143.03 249.556 143.116 249.894 143.146 250.23 143.12 250.323 141.616 249.21 140.308 247.71 140.16Z" fill="#F28F8F"/></g><path d="M236.09 175.72C236.43 164.2 231.79 162.88 230.09 166.43 227.91 162.033 227.178 157.059 228 152.22 229.42 150.45 230.55 148.95 231 148.28 231.65 147.39 232.18 147.67 232.18 147.67L231.77 150.55C232.128 153.421 233.118 156.178 234.67 158.62 236.69 162.05 237 166.09 236.09 175.72Z" fill="#FFC100"/><path d="M236.09 175.72C236.43 164.2 231.79 162.88 230.09 166.43 227.91 162.033 227.178 157.059 228 152.22 229.42 150.45 230.55 148.95 231 148.28 231.65 147.39 232.18 147.67 232.18 147.67L231.77 150.55C232.128 153.421 233.118 156.178 234.67 158.62 236.69 162.05 237 166.09 236.09 175.72Z" fill="#FFFFFF" opacity="0.45"/></g><g id="freepik--arm--inject-81"><path d="M202.48 249.77C201.82 246.86 201.38 243.77 200.09 241.08 198.56 237.91 197.63 237.31 197.09 233.03 196.28 226.83 198.92 206.64 198.92 206.64 193.85 203.1 187.92 202.22 181.37 203.36 180.77 207.07 181.29 211.36 184.13 233.02 184.66 237.02 183.5 240.88 183.58 244.85 183.67 248.64 184 252.59 185.91 255.95 186.092 256.288 186.317 256.601 186.58 256.88 186.78 257.09 187.02 257.26 187.24 257.45 188.65 258.67 189.39 260.77 191.17 261.31 192.033 261.517 192.939 261.461 193.77 261.15 194.083 261.008 194.428 260.95 194.77 260.98 195.05 260.98 195.29 261.25 195.59 261.3 196.94 261.52 197.47 260.3 197.35 259.11 197.13 257.05 195.87 254.36 195.35 251.46 194.83 248.56 195.19 244.98 195.73 244.91 197.56 244.65 198.06 250.96 201.21 251.7 203 252.13 202.66 250.54 202.48 249.77Z" fill="#FFA8A7"/><path d="M213.87 155.62C209.13 156.45 206.3 157.06 203.05 159.54 199.8 162.02 197.77 166.25 195.05 171.09 192.33 175.93 190.44 179.18 187.52 185.02 185.197 189.634 183.176 194.394 181.47 199.27 180.937 200.747 180.69 202.311 180.74 203.88L199.4 203.53C199.4 203.53 213.05 179.09 214.22 177.26 215.39 175.43 219.21 159.67 213.87 155.62Z" fill="#455A64"/><path d="M198.51 209.57C199.67 208.96 199.23 207.73 199.79 207.2 200.714 206.086 201.004 204.577 200.56 203.2 199.9 201.71 198.14 198.88 192.05 196.77 190.279 196.174 188.448 195.775 186.59 195.58 185.05 195.41 183.16 195.18 181.73 195.94 180.83 196.449 180.255 197.387 180.21 198.42 180.249 198.8 180.215 199.183 180.11 199.55 179.969 199.788 179.798 200.006 179.6 200.2 179.281 200.537 179.105 200.986 179.11 201.45 179.11 202.14 179.73 202.65 180.11 203.25 180.49 203.85 180 205 180 205.81 180.09 207.07 180.66 207.27 181.13 207.36L181.13 205.44C181.13 205.44 183.85 203.53 191.71 204.83 196.93 205.7 198.65 208.5 198.65 208.5Z" fill="#37474F"/></g><path d="M287 174.16C287.38 173.3 285 173.05 283.92 173.58 280.01 176.84 277.92 184.31 278.44 188.67 278.96 193.03 281.37 196.44 284.11 196.56 286.85 196.68 286.61 197.17 288.73 197.17 290.85 197.17 294.17 195.49 295.35 191.1 293.845 192.827 291.548 193.646 289.29 193.26 285.48 192.58 284.6 185.26 284.8 182.12 285.103 179.366 285.845 176.678 287 174.16Z" fill="#37474F"/></g></g></g></g></svg>