<svg viewBox="0 0 500 500" xmlns="http://www.w3.org/2000/svg" xmlns:xlink="http://www.w3.org/1999/xlink" overflow="hidden"><g id="freepik--Character--inject-179"><g id="freepik--character--inject-179"><ellipse cx="226.29" cy="288.42" rx="29.87" ry="17.24" id="freepik--shadow--inject-179" opacity="0.1"/><path d="M137.93 185.32C137.118 184.185 135.966 183.337 134.64 182.9 133.33 182.47 129.56 183.14 127.64 186.13 125.72 189.12 125.13 192.85 123.97 195.13 122.81 197.41 119.31 200.92 117.41 202.68 115.51 204.44 112.41 211.19 114.3 215.82 114.775 216.766 115.606 217.485 116.61 217.82Z"/><path d="M136.8 184.34C134.86 183.72 131.64 184.68 129.61 187.15 127.85 189.29 126.93 192.76 125.96 195.26 125.357 196.511 124.561 197.658 123.6 198.66 121.34 201.56 118.18 203.54 116.7 207.02 115.978 208.787 115.52 210.65 115.34 212.55 115.099 213.893 115.23 215.276 115.72 216.55 116.9 219.09 120.24 218.99 122.16 217.41 123.256 216.356 124.226 215.178 125.05 213.9 128.05 209.9 132.37 206.9 136.56 204.08 137.7 203.3 138.97 202.59 140.04 201.71 140.59 201.26 140.54 200.66 140.61 200 141 196.45 141.26 192.89 141.54 189.33 140.31 189 138.74 185 136.8 184.34Z" fill="#263238"/><path d="M177.08 141 174.89 206.45C173.38 203.12 166.41 200.23 160.65 198.24 156.95 196.97 150.65 193.6 146.48 191.96L146.48 191.96 139.75 188.37C138.353 188.599 137.052 189.232 136.01 190.19 134.63 191.38 132.11 195.73 133.94 197.04 134.52 197.358 134.877 197.969 134.87 198.63 135.99 197.98 137.87 198.83 139.05 199.63 139.501 199.921 139.831 200.365 139.98 200.88 139.98 200.88 163.39 216.75 171.14 221.93 180.67 228.31 185.93 225.65 189.52 220.93 193.11 216.21 199.52 200.2 203.82 187.33 208.12 174.46 211.31 155.82 213.76 145.33Z" fill="#FFA8A7"/><path d="M212.7 153.11C210.7 166.11 200.26 206.83 191.89 219.11 183.52 231.39 177.2 226.96 172.21 224.51 167.22 222.06 135.12 203.63 135.12 203.63 131.938 200.467 131.199 195.594 133.3 191.63 136.8 184.38 140.77 185.49 140.77 185.49 140.77 185.49 170.21 198.87 173.53 203.39L176.44 148.39Z" fill="#37474F"/><path d="M197.39 162.15 208.09 173.69 202.23 163.69C207.038 161.287 210.706 157.088 212.44 152 212.44 152 205 161.06 197.39 162.15Z" fill="#263238"/><path d="M224.92 267C225.28 255.42 226.05 220.61 226.18 211.82 226.31 202.04 227.45 198.82 218.38 187.82 208.38 175.74 197.38 162.17 197.38 162.17L213.74 147.38 167.18 141.6C165.37 148.82 163.66 151.41 163.54 159.75 163.46 165.57 162.74 172.67 185.68 191.45 198.33 201.78 208 208.64 208 208.64 208 208.64 205.15 213.78 205.32 223.23 205.49 232.68 212.38 263.79 213.04 272.1 213.04 272.46 213.04 272.8 213.04 273.05 213.04 273.46 213.33 273.63 213.6 273.9 214.75 275.05 215.6 277.21 216.5 278.55 217.347 279.797 218.773 280.525 220.28 280.48 221.782 280.386 223.175 279.659 224.11 278.48 224.688 277.772 225.104 276.946 225.33 276.06 225.458 275.621 225.532 275.167 225.55 274.71 225.481 274.236 225.378 273.768 225.24 273.31 224.953 271.22 224.846 269.109 224.92 267Z" fill="#FFA8A7"/><path d="M212.59 279.81C211.99 279.95 212.02 281.94 212.26 282.61 212.5 283.28 214.2 284.73 215.59 285.74 217.334 287.191 218.766 288.981 219.8 291 221.262 293.703 223.313 296.044 225.8 297.85 228.8 299.85 233.03 300.4 237.13 299.71 241.44 298.99 241.82 297.4 241.85 295.88Z" fill="#263238"/><path d="M225.29 273.46C225.6 273.46 225.9 273.46 226.21 273.4 226.446 273.34 226.685 273.483 226.745 273.719 226.76 273.781 226.762 273.847 226.75 273.91 227.188 276.022 228.037 278.027 229.25 279.81 230.39 281.521 231.7 283.113 233.16 284.56 236.41 288.05 240.07 289.64 242.16 292.48 242.71 293.21 242.32 294.96 241.95 295.6 240.95 297.39 237.5 298.34 233.66 298.34 228.24 298.34 225.59 295.63 223.06 292.84 221.28 290.84 218.89 287.38 217.61 285.84 216.33 284.3 212.8 282.59 212.06 280.76 211.47 279.22 211.86 276.98 212.25 275.05 212.62 273.29 212.44 271.52 213.05 271.65 213.015 271.905 213.015 272.165 213.05 272.42 213.15 272.65 213.44 272.83 213.61 273.01 214.298 273.91 215.04 274.768 215.83 275.58 216.286 275.984 216.871 276.214 217.48 276.23 218.109 276.214 218.667 275.819 218.89 275.23 219.13 274.57 219.12 274.52 219.72 274.33 220.28 274.177 220.847 274.054 221.42 273.96 222.7 273.721 223.992 273.554 225.29 273.46Z" fill="#37474F"/><path d="M165.86 140.22C163.67 148.91 161.79 161.11 163.53 166.53 165.27 171.95 167.47 176.83 182.16 189.87 196.85 202.91 205.52 209.56 205.52 209.56 205.52 209.56 203.41 218.28 205.52 231.12 207.63 243.96 211.28 274.26 211.28 274.26 211.28 274.26 217.01 282.26 227.81 275.52 227.81 275.52 227.1 221.07 227.71 209.52 228.32 197.97 226.43 195.69 220.17 187.79 213.91 179.89 197.39 162.11 197.39 162.11 202.23 161.84 212.39 157.72 213.75 147.32Z" fill="#455A64"/><path d="M255.5 86.31C254.5 75.19 251.5 70.54 246.86 69.43 239.42 67.67 238.86 70.43 241.47 75.89 242.569 78.1403 243.346 80.5337 243.78 83 242.974 82.0418 242.038 81.2004 241 80.5 239.905 79.6786 238.364 79.8306 237.45 80.85 237.12 81.32 238.34 82.05 239.45 84.05 240.91 86.6 240.97 88.49 243.19 90.77 244.033 91.9397 244.516 93.3298 244.58 94.77 244.75 98.77 243.81 104.17 242.51 109.38 238.63 103.88 234.32 98.3 231.07 93.92 225.07 85.92 222.25 83.4 213.36 82.01L216.36 101.85C216.36 101.85 238.76 131.56 245.01 133.33 247.67 134.08 249.75 133.61 251.01 132.22L251.01 132.22 251.07 132.16 251.14 132.07C253.01 129.93 254.14 123.4 254.79 114.12L254.79 114.12C255.21 109.48 255.53 104.23 255.92 98.59 256.07 94.4919 255.929 90.3883 255.5 86.31Z" fill="#FFA8A7"/><path d="M212 81.71C218.88 82.52 222.09 83.6 225.66 86.83 229.23 90.06 242.66 108.7 242.66 108.7L243.73 104.6C245.209 106.756 247.488 108.231 250.06 108.7 254.48 109.56 255.33 108.7 255.33 108.7 255.344 113.304 255.06 117.903 254.48 122.47 253.48 130.02 252.15 133.95 247.9 134.23 243.65 134.51 239.47 130.02 233.69 124.1 227.25 117.5 217.09 105.87 217.09 105.87Z" fill="#455A64"/><path d="M242.58 108.7C242.58 108.7 241.52 112.52 241.05 114.9 240.73 116.49 240.11 120.85 241.18 124.37 241.18 124.37 239.18 121.96 239.32 116.61 239.451 113.271 240.096 109.973 241.23 106.83Z" fill="#37474F"/><path d="M219.33 105.06C219.28 97.59 221.02 83.81 213.68 82.06 203.56 79.7 199.8 79.7 193.3 79.7 186.149 79.9578 179.029 80.7601 172 82.1 168.45 82.48 166.79 87.58 166.79 100.1 166.79 109.6 167.58 114.86 167.57 123.34L163.57 149.87C169.38 157.93 196.86 162.04 212.72 153.13 215.92 138.27 219.37 111.73 219.33 105.06Z" fill="#37474F"/><path d="M183.41 56.32 185.35 67.74C185.82 70.39 187.22 71.82 189.91 72.02L193.5 72.28 194.73 55.36Z" fill="#263238"/><path d="M187.83 43.33C186.333 43.052 184.79 43.4717 183.64 44.47 181.75 46.14 182.92 50.72 183.75 58.47L188.09 58.26Z" fill="#263238"/><path d="M189.3 58.34C188.45 58.76 187.42 57.13 186.5 56.02 185.58 54.91 182.44 53.25 180.58 56.54 178.72 59.83 181.45 63.54 183.65 65.06 185.85 66.58 188.12 64.21 188.12 64.21 187.96 67.39 187.05 72.28 186.07 80.33 189.01 85.93 197.2 86.16 201.83 88.42 203.41 86.4542 203.926 83.8384 203.21 81.42L204.13 76.78C205.712 77.0732 207.313 77.257 208.92 77.33 211.82 77.4 214.37 77.79 216.29 73.33 218.39 68.39 219.68 59.02 218.77 49.51 217.6 37.31 203.29 36.38 195.32 40.62 187.35 44.86 189.3 58.34 189.3 58.34Z" fill="#FFA8A7"/><path d="M187 42.28C187.192 39.8664 188.454 37.6653 190.44 36.28 192.419 34.9805 194.691 34.1968 197.05 34 200.62 33.64 204.21 34.26 207.79 34.63 212.13 35.08 216.32 35.03 220.34 33.1 220.89 32.84 221.55 32.55 222.06 32.87 222.49 33.2444 222.685 33.8215 222.57 34.38 222.464 35.6191 222.125 36.827 221.57 37.94 221.03 39.08 220.22 40.07 219.67 41.19 220.828 41.3957 222.021 41.2566 223.1 40.79 223.337 40.6603 223.594 40.5691 223.86 40.52 224.131 40.4674 224.408 40.5766 224.57 40.8 224.661 40.9968 224.686 41.218 224.64 41.43 223.994 46.453 219.398 50.001 214.375 49.3545 212.839 49.157 211.379 48.574 210.13 47.66 208.476 49.0735 206.253 49.6256 204.13 49.15 203.21 48.93 200.13 48.04 199.46 45.95 198.301 49.2285 195.217 51.4336 191.74 51.47 191.465 53.6685 191.061 55.8489 190.53 58 190.28 59 189.74 59.79 188.73 59.14 187.89 58.59 186.92 56.61 186.32 55.79 186.14 55.54 186.11 55.14 186.05 53.99 185.988 51.6512 186.105 49.311 186.4 46.99 186.56 45.41 186.74 43.84 187 42.28Z" fill="#263238"/><path d="M186.75 44.22 181.55 40.92C182.369 39.4797 184.2 38.9759 185.641 39.7948 185.678 39.8157 185.714 39.8375 185.75 39.86 187.199 40.81 187.64 42.7337 186.75 44.22Z" fill="#263238"/><path d="M192.12 72.85C190.6 70.92 189.83 65.4 189.83 65.4 190.16 66.4 192.49 70.94 193.83 72.28 196.46 74.85 204.1 76.82 204.1 76.82L203.61 79.24C201.87 78.71 194.75 76.18 192.12 72.85Z" fill="#F28F8F"/><path d="M204.5 58.56C204.438 59.3584 203.741 59.9555 202.942 59.8937 202.144 59.8319 201.547 59.1345 201.609 58.3361 201.669 57.5518 202.344 56.959 203.13 57 203.933 57.0639 204.54 57.7551 204.5 58.56Z" fill="#263238"/><path d="M202.92 53.67 199.72 55.21C199.313 54.3002 199.692 53.2315 200.58 52.78 201.45 52.3711 202.486 52.7446 202.895 53.6143 202.904 53.6327 202.912 53.6513 202.92 53.67Z" fill="#263238"/><path d="M202.76 67.08 208.36 69.54C207.769 71.0878 206.035 71.8631 204.487 71.2718 204.444 71.2555 204.402 71.2382 204.36 71.22 202.805 70.4904 202.1 68.6658 202.76 67.08Z" fill="#B16668"/><path d="M203.23 68.62C203.002 68.6231 202.775 68.6637 202.56 68.74 202.687 69.8269 203.374 70.7679 204.37 71.22 204.686 71.3587 205.025 71.4368 205.37 71.45 205.436 71.2433 205.467 71.0269 205.46 70.81 205.438 69.5941 204.446 68.6198 203.23 68.62Z" fill="#F28F8F"/><path d="M217.35 55.34 214.64 53C215.226 52.2521 216.307 52.1205 217.055 52.7062 217.077 52.7236 217.099 52.7415 217.12 52.76 217.876 53.4191 217.978 54.5575 217.35 55.34Z" fill="#263238"/><path d="M216.3 58.73C216.253 59.5308 215.566 60.1419 214.765 60.095 213.964 60.0481 213.353 59.3608 213.4 58.56 213.427 57.7486 214.107 57.1126 214.918 57.1396 214.922 57.1397 214.926 57.1398 214.93 57.14 215.745 57.1983 216.359 57.9066 216.301 58.7219 216.3 58.7246 216.3 58.7273 216.3 58.73Z" fill="#263238"/><path d="M209.4 57.51 209.12 66.25 213.8 65.09 209.4 57.51Z" fill="#F28F8F"/><path d="M145 160.18C143.7 157.13 142.79 156.18 142.2 153.3 143.005 154.148 143.919 154.885 144.92 155.49 146.15 156.12 147.8 156.11 148.23 155 148.66 153.89 146.77 153.21 146.07 151.93 144.984 149.743 143.688 147.666 142.2 145.73 141.366 144.952 140.883 143.87 140.86 142.73 141 134.56 142.22 125.73 142.46 117.4 148.46 113.14 162.02 107.4 167.46 103.94 169.056 103.165 170.512 102.131 171.77 100.88 174.03 98.45 175.21 92.52 175.54 87.31 175.81 83.21 174.9 81.63 174.9 81.63 171.779 81.3739 168.64 81.8428 165.73 83 163.39 84 158.49 86.58 148.73 92.66 141.55 97.0196 135.028 102.38 129.36 108.58 126.83 111.48 128.36 135.17 128.77 140.78 128.98 143.83 129.42 148.51 130.08 152.52 131.2 159.29 135.01 164.93 139.88 166.14 147.6 168.11 146.79 164.32 145 160.18Z" fill="#FFA8A7"/><path d="M176 81.4C164.11 80.58 158.45 85.49 148.85 92.01 139.25 98.53 129.16 105.74 127.85 110.01 126.54 114.28 128.08 130.12 128.08 130.12 128.08 130.12 133 133.12 141.49 130.12L142.81 117.48 170.81 104.04C173.44 102.66 179.11 92.24 176 81.4Z" fill="#455A64"/><path d="M204.63 91.54C205.345 90.5928 205.779 89.4627 205.88 88.28L203.88 86.13 203.26 89.06Z" fill="#BA68C8"/><path d="M204.63 91.54C205.345 90.5928 205.779 89.4627 205.88 88.28L203.88 86.13 203.26 89.06Z" opacity="0.25"/><path d="M200.45 88.86 195.08 84.22 189.85 86.93 198.26 92.53 200.45 88.86Z" fill="#BA68C8"/><path d="M200.45 88.86 195.08 84.22 189.85 86.93 198.26 92.53 200.45 88.86Z" opacity="0.25"/><path d="M186.8 74.76 186.51 76.84C189.77 81.5 193.83 82.84 196.83 84.49 198.691 85.5318 200.378 86.8578 201.83 88.42 200.334 88.4313 198.863 88.8126 197.55 89.53 195.16 90.8 192.75 92.69 191.55 92.41 190.35 92.13 187.89 89.73 185.11 85.41 183.99 83.67 183.01 81.49 181.81 80.6L179.71 80.87C182.53 79.08 184.66 74.17 186.8 74.76Z" fill="#455A64"/><path d="M201.83 88.42C204.83 88.42 205.53 90.89 206.19 90.23 206.85 89.57 206.45 82.23 203.6 79.5Z" fill="#455A64"/><path d="M165.29 117.5C191.15 118.94 199.9 99.92 200.07 95.64L203.07 95.64C204.53 100.98 201.82 124.32 174.5 129.89 168.92 130.89 157.5 127.89 156.66 125.89 155.82 123.89 162.71 117.36 165.29 117.5Z" fill="#BA68C8"/><path d="M203.18 96.12C203.18 95.97 203.11 95.82 203.08 95.69L200.08 95.69 200 96.89C201.116 96.9918 202.234 96.721 203.18 96.12Z" opacity="0.15"/><path d="M200.45 88.86C201.394 88.8232 202.34 88.8903 203.27 89.06 203.89 89.7839 204.353 90.6283 204.63 91.54 204.419 93.0189 203.89 94.4346 203.08 95.69 202.127 96.1239 201.033 96.1239 200.08 95.69 199.186 94.8521 198.557 93.771 198.27 92.58 198.478 91.1013 199.262 89.7645 200.45 88.86Z" fill="#BA68C8"/></g></g></svg>